<?xml version="1.0" encoding="utf-8"?>
<!-- Generator: Adobe Illustrator 23.0.1, SVG Export Plug-In . SVG Version: 6.00 Build 0)  -->
<svg version="1.1" id="Layer_1" xmlns="http://www.w3.org/2000/svg" xmlns:xlink="http://www.w3.org/1999/xlink" x="0px" y="0px"
	 viewBox="0 0 200 200" style="enable-background:new 0 0 200 200;" xml:space="preserve">
<style type="text/css">
	.st0{clip-path:url(#SVGID_2_);fill:#BCBCBC;}
	.st1{clip-path:url(#SVGID_2_);fill:#EAEAEA;}
	.st2{clip-path:url(#SVGID_2_);fill:#9B9B9B;}
	.st3{clip-path:url(#SVGID_2_);}
	.st4{fill:#EAEAEA;}
</style>
<title>Profile Picture</title>
<g>
	<defs>
		<circle id="SVGID_1_" cx="100" cy="100" r="100"/>
	</defs>
	<clipPath id="SVGID_2_">
		<use xlink:href="#SVGID_1_"  style="overflow:visible;"/>
	</clipPath>
	<circle class="st0" cx="100" cy="100" r="100"/>
	<path class="st1" d="M63,120h72c6.6,0,12,5.4,12,12v56c0,6.6-5.4,12-12,12H63c-6.6,0-12-5.4-12-12v-56C51,125.4,56.4,120,63,120z"
		/>
	<circle class="st1" cx="99" cy="68" r="45"/>
	<path class="st2" d="M130.2,35.6L66.6,99.2l46.4,46.4l-38,38l16,16c3,0.3,6.1,0.4,9.1,0.4c53.5,0,97.1-42,99.9-94.8L130.2,35.6z"/>
	<g class="st3">
		<path class="st4" d="M63,120h72c6.6,0,12,5.4,12,12v56c0,6.6-5.4,12-12,12H63c-6.6,0-12-5.4-12-12v-56C51,125.4,56.4,120,63,120z"
			/>
		<circle class="st4" cx="99" cy="68" r="45"/>
	</g>
</g>
</svg>
